<svg width="50" height="50" viewBox="0 0 50 50" fill="none" xmlns="http://www.w3.org/2000/svg">
<g id="eos-icons:monitoring">
<path id="Vector" d="M22.9167 37.5H27.0833V43.75H22.9167V37.5ZM33.3333 43.75V47.9167H16.6667V43.75H33.3333ZM41.6667 37.5H8.33334C6.67625 37.4984 5.0875 36.8393 3.91575 35.6676C2.74401 34.4959 2.085 32.9071 2.08334 31.25V8.33334C2.085 6.67625 2.74401 5.0875 3.91575 3.91575C5.0875 2.74401 6.67625 2.085 8.33334 2.08334H41.6667C43.3238 2.085 44.9125 2.74401 46.0843 3.91575C47.256 5.0875 47.915 6.67625 47.9167 8.33334V31.25C47.915 32.9071 47.256 34.4959 46.0843 35.6676C44.9125 36.8393 43.3238 37.4984 41.6667 37.5ZM8.33334 6.25001C7.78081 6.25001 7.25091 6.4695 6.8602 6.8602C6.4695 7.25091 6.25001 7.78081 6.25001 8.33334V31.25C6.25001 31.8025 6.4695 32.3324 6.8602 32.7231C7.25091 33.1138 7.78081 33.3333 8.33334 33.3333H41.6667C42.2192 33.3333 42.7491 33.1138 43.1398 32.7231C43.5305 32.3324 43.75 31.8025 43.75 31.25V8.33334C43.75 7.78081 43.5305 7.25091 43.1398 6.8602C42.7491 6.4695 42.2192 6.25001 41.6667 6.25001H8.33334Z" fill="#4ECB71"/>
<path id="Vector_2" d="M33.3333 31.25L29.3458 17.9583L27.0833 27.0833L24.3562 20.8333H23.6667L20.8333 29.1667L18.4229 20.6938L17.3104 22.9167H10.4167V20.8333H16.0229L18.75 14.5833L20.975 22.3188L22.1667 18.75H25.6437L26.6583 20.7771L29.1667 8.33334L33.3333 25L34.6667 20.8333H39.5833V22.9167H36.1667L33.3333 31.25Z" fill="#4ECB71"/>
</g>
</svg>
