<svg width="58" height="53" viewBox="0 0 58 53" fill="none" xmlns="http://www.w3.org/2000/svg">
<g id="fluent:alert-on-24-filled" filter="url(#filter0_d_6_121)">
<path id="Vector" d="M22.8375 39.5896H35.1625C34.9162 41.0458 34.1622 42.3678 33.0342 43.3211C31.9061 44.2744 30.4769 44.7974 29 44.7974C27.5231 44.7974 26.0939 44.2744 24.9658 43.3211C23.8378 42.3678 23.0838 41.0458 22.8375 39.5896ZM29 4.17291C33.144 4.17291 37.1183 5.81911 40.0485 8.74937C42.9788 11.6796 44.625 15.6539 44.625 19.7979V28.1312L47.5792 34.7146C47.7135 35.0157 47.7704 35.3456 47.7449 35.6743C47.7193 36.003 47.612 36.3201 47.4328 36.5968C47.2536 36.8735 47.008 37.1011 46.7185 37.2588C46.429 37.4165 46.1047 37.4994 45.775 37.5H12.2333C11.9032 37.4999 11.5783 37.4173 11.2883 37.2596C10.9982 37.1019 10.7522 36.8742 10.5727 36.5971C10.3932 36.32 10.2858 36.0025 10.2604 35.6733C10.2349 35.3441 10.2922 35.0138 10.4271 34.7125L13.375 28.1292V19.7708L13.3854 19.25C13.5279 15.2039 15.2354 11.371 18.1481 8.55893C21.0608 5.74688 24.9513 4.1731 29 4.17291ZM51.9167 17.1875C52.3125 17.1876 52.6936 17.338 52.9829 17.6083C53.2722 17.8785 53.4481 18.2485 53.475 18.6435C53.502 19.0385 53.3781 19.4289 53.1283 19.736C52.8784 20.0431 52.5213 20.2439 52.1292 20.2979L51.9167 20.3125H47.75C47.3541 20.3124 46.973 20.162 46.6838 19.8917C46.3945 19.6215 46.2186 19.2515 46.1916 18.8565C46.1646 18.4615 46.2886 18.0711 46.5384 17.764C46.7882 17.4569 47.1453 17.256 47.5375 17.2021L47.75 17.1875H51.9167ZM10.25 17.1875C10.6459 17.1876 11.027 17.338 11.3162 17.6083C11.6055 17.8785 11.7814 18.2485 11.8084 18.6435C11.8354 19.0385 11.7114 19.4289 11.4616 19.736C11.2118 20.0431 10.8547 20.2439 10.4625 20.2979L10.25 20.3125H6.08332C5.68744 20.3124 5.30636 20.162 5.01709 19.8917C4.72782 19.6215 4.55192 19.2515 4.52494 18.8565C4.49795 18.4615 4.6219 18.0711 4.87173 17.764C5.12155 17.4569 5.47864 17.256 5.87082 17.2021L6.08332 17.1875H10.25ZM51.0833 5.3125C51.3081 5.61196 51.4178 5.98217 51.3926 6.35574C51.3674 6.72931 51.2088 7.0814 50.9458 7.34791L50.7708 7.5L46.6042 10.625C46.2887 10.8627 45.895 10.9722 45.5021 10.9313C45.1093 10.8905 44.7465 10.7024 44.4867 10.4049C44.227 10.1073 44.0895 9.72248 44.102 9.32771C44.1145 8.93294 44.2761 8.55755 44.5542 8.27708L44.7292 8.125L48.8958 5C49.2273 4.75136 49.6441 4.64459 50.0543 4.7032C50.4645 4.7618 50.8347 4.98098 51.0833 5.3125ZM9.10416 5L13.2708 8.125C13.435 8.24811 13.5733 8.40235 13.6778 8.57891C13.7824 8.75547 13.8511 8.9509 13.8801 9.15402C13.9091 9.35715 13.8979 9.56401 13.8469 9.76278C13.796 9.96155 13.7064 10.1483 13.5833 10.3125C13.4602 10.4766 13.306 10.6149 13.1294 10.7195C12.9528 10.824 12.7574 10.8928 12.5543 10.9218C12.3512 10.9508 12.1443 10.9395 11.9455 10.8886C11.7468 10.8377 11.56 10.7481 11.3958 10.625L7.22916 7.5C7.06501 7.37688 6.92671 7.22264 6.82217 7.04608C6.71762 6.86952 6.64888 6.67409 6.61986 6.47097C6.59084 6.26784 6.60212 6.06098 6.65304 5.86221C6.70397 5.66344 6.79354 5.47665 6.91666 5.3125C7.03977 5.14834 7.19401 5.01005 7.37057 4.9055C7.54714 4.80096 7.74256 4.73222 7.94569 4.7032C8.14882 4.67418 8.35567 4.68546 8.55444 4.73638C8.75321 4.7873 8.94001 4.87688 9.10416 5Z" fill="#D64550" fill-opacity="0.8"/>
</g>
<defs>
<filter id="filter0_d_6_121" x="0" y="0" width="58" height="58" filterUnits="userSpaceOnUse" color-interpolation-filters="sRGB">
<feFlood flood-opacity="0" result="BackgroundImageFix"/>
<feColorMatrix in="SourceAlpha" type="matrix" values="0 0 0 0 0 0 0 0 0 0 0 0 0 0 0 0 0 0 127 0" result="hardAlpha"/>
<feOffset dy="4"/>
<feGaussianBlur stdDeviation="2"/>
<feComposite in2="hardAlpha" operator="out"/>
<feColorMatrix type="matrix" values="0 0 0 0 0 0 0 0 0 0 0 0 0 0 0 0 0 0 0.25 0"/>
<feBlend mode="normal" in2="BackgroundImageFix" result="effect1_dropShadow_6_121"/>
<feBlend mode="normal" in="SourceGraphic" in2="effect1_dropShadow_6_121" result="shape"/>
</filter>
</defs>
</svg>
