<svg width="72" height="72" viewBox="0 0 72 72" fill="none" xmlns="http://www.w3.org/2000/svg">
<g id="fluent:arrow-reply-16-filled">
<path id="Vector" d="M24.0719 31.0533L34.1744 26.785C34.7749 26.5323 35.2574 26.0616 35.5249 25.4676C35.7925 24.8736 35.8253 24.2004 35.6167 23.5832C35.4081 22.966 34.9735 22.4507 34.4005 22.1409C33.8274 21.831 33.1583 21.7496 32.5277 21.913L32.1657 22.0369L16.3325 28.7238L16.0125 28.8907L15.8101 29.0237L15.528 29.2616L15.3039 29.512L15.1695 29.706L15.0575 29.8905L14.9264 30.186L14.8629 30.3791L14.7891 30.6979L14.7553 31.0552L14.7783 31.4281L14.8187 31.6485C14.8518 31.8041 14.8993 31.9563 14.9606 32.1031L14.8462 31.7636C14.8764 31.8793 14.9146 31.9927 14.9606 32.1031L21.6519 47.9344C21.9068 48.5312 22.3773 49.0098 22.9696 49.2749C23.5619 49.54 24.2323 49.572 24.8472 49.3646C25.462 49.1571 25.976 48.7254 26.2865 48.1557C26.5971 47.5859 26.6814 46.92 26.5226 46.2909L26.4019 45.9302L22.1323 35.8308L33.885 40.6022C45.5136 45.3231 56.1013 41.9159 60.2918 32.6356L60.58 31.9623C60.8372 31.3288 60.8322 30.619 60.5661 29.9892C60.3 29.3593 59.7946 28.861 59.161 28.6038C58.5275 28.3466 57.8177 28.3516 57.1879 28.6177C56.558 28.8838 56.0597 29.3892 55.8025 30.0228C53.0508 36.8005 45.6834 39.4858 36.6483 36.1442L35.8246 35.8246L24.0719 31.0533Z" fill="white"/>
</g>
</svg>
