<svg width="97" height="86" viewBox="0 0 97 86" fill="none" xmlns="http://www.w3.org/2000/svg">
<g id="game-icons:hummingbird">
<path id="Vector" d="M26.4666 3.95062C24.7426 9.08039 23.3406 14.3042 24.0605 19.3332C24.8562 24.8258 28.0391 30.2344 36.5076 35.4078C26.3529 47.9719 20.1957 69.7406 25.273 82.0527C27.3381 72.9824 27.9633 65.6254 35.4088 57.7645C50.0914 53.4645 58.882 51.4488 61.9891 36.6508C63.1637 34.1816 64.3762 33.409 68.0326 32.5019C70.0408 32.0148 72.2385 31.2422 72.2195 29.277C72.1816 20.9961 66.858 17.7879 61.307 17.8719C55.7371 17.9559 49.9398 21.332 48.9168 26.2367C47.7801 26.5391 46.6623 26.9926 45.5635 27.5805C33.6469 20.2402 30.0094 13.1587 26.4666 3.95062ZM6.06818 17.9727C8.11427 22.5414 11.0773 27.1437 15.3893 30.7551C19.9873 34.6016 26.0877 37.3562 34.4994 37.8434C27.9633 33.7785 24.1174 29.3945 22.1471 24.8762C16.5771 23.0453 11.4486 20.677 6.06818 17.9727ZM62.9174 22.3902C63.5298 22.392 64.1165 22.6085 64.5495 22.9924C64.9826 23.3763 65.2267 23.8965 65.2287 24.4394C65.2267 24.9824 64.9826 25.5026 64.5495 25.8865C64.1165 26.2704 63.5298 26.4869 62.9174 26.4887C62.305 26.4869 61.7183 26.2704 61.2852 25.8865C60.8522 25.5026 60.608 24.9824 60.606 24.4394C60.608 23.8965 60.8522 23.3763 61.2852 22.9924C61.7183 22.6085 62.305 22.392 62.9174 22.3902ZM74.2846 31.8133C73.6215 32.6699 72.9394 33.5266 71.2344 34.0305C77.6568 38.2801 86.2201 46.8801 90.9375 51.6672C88.8156 46.0906 80.366 36.7852 74.2846 31.8133Z" fill="white"/>
</g>
</svg>
