<svg width="24" height="24" viewBox="0 0 24 24" fill="none" xmlns="http://www.w3.org/2000/svg">
<g id="ic:baseline-tiktok" clip-path="url(#clip0_3_47)">
<path id="Vector" d="M19.0408 3.76C17.9945 2.7195 17.4179 1.38324 17.4184 0H12.6888V16.5333C12.6523 17.428 12.2187 18.2755 11.4792 18.8973C10.7398 19.519 9.75222 19.8665 8.72449 19.8667C6.55102 19.8667 4.7449 18.32 4.7449 16.4C4.7449 14.1067 7.28571 12.3867 9.90306 13.0933V8.88C4.62245 8.26667 0 11.84 0 16.4C0 20.84 4.22449 24 8.70918 24C13.5153 24 17.4184 20.6 17.4184 16.4V8.01333C19.3362 9.21313 21.6388 9.85686 24 9.85333V5.73333C24 5.73333 21.1224 5.85333 19.0408 3.76Z" fill="white"/>
</g>
<defs>
<clipPath id="clip0_3_47">
<rect width="24" height="24" fill="white"/>
</clipPath>
</defs>
</svg>
