<svg width="24" height="24" viewBox="0 0 24 24" fill="none" xmlns="http://www.w3.org/2000/svg">
<path id="Vector" fill-rule="evenodd" clip-rule="evenodd" d="M5.14328 0C3.77954 -1.00559e-07 2.47163 0.541609 1.50713 1.50573C0.542634 2.46986 0.00052371 3.77757 0 5.14131V18.8567C0 20.2208 0.54188 21.529 1.50643 22.4936C2.47098 23.4581 3.7792 24 5.14328 24H18.8587C20.2224 23.9995 21.5301 23.4574 22.4943 22.4929C23.4584 21.5284 24 20.2205 24 18.8567V5.14131C23.9995 3.77791 23.4576 2.4705 22.4936 1.50643C21.5295 0.542363 20.2221 0.000523478 18.8587 0H5.14328ZM20.3381 5.14921C20.3381 5.54209 20.182 5.91888 19.9042 6.19669C19.6264 6.47449 19.2496 6.63057 18.8567 6.63057C18.4638 6.63057 18.087 6.47449 17.8092 6.19669C17.5314 5.91888 17.3754 5.54209 17.3754 5.14921C17.3754 4.75633 17.5314 4.37954 17.8092 4.10173C18.087 3.82392 18.4638 3.66785 18.8567 3.66785C19.2496 3.66785 19.6264 3.82392 19.9042 4.10173C20.182 4.37954 20.3381 4.75633 20.3381 5.14921ZM12.003 7.89071C10.9134 7.89071 9.86841 8.32355 9.09795 9.094C8.3275 9.86446 7.89466 10.9094 7.89466 11.999C7.89466 13.0886 8.3275 14.1336 9.09795 14.904C9.86841 15.6745 10.9134 16.1073 12.003 16.1073C13.0926 16.1073 14.1375 15.6745 14.908 14.904C15.6784 14.1336 16.1113 13.0886 16.1113 11.999C16.1113 10.9094 15.6784 9.86446 14.908 9.094C14.1375 8.32355 13.0926 7.89071 12.003 7.89071ZM5.91754 11.999C5.91754 10.3856 6.55847 8.83823 7.69934 7.69736C8.84021 6.5565 10.3876 5.91556 12.001 5.91556C13.6144 5.91556 15.1618 6.5565 16.3026 7.69736C17.4435 8.83823 18.0844 10.3856 18.0844 11.999C18.0844 13.6124 17.4435 15.1598 16.3026 16.3007C15.1618 17.4415 13.6144 18.0825 12.001 18.0825C10.3876 18.0825 8.84021 17.4415 7.69934 16.3007C6.55847 15.1598 5.91754 13.6124 5.91754 11.999Z" fill="white"/>
</svg>
