<svg width="50" height="50" viewBox="0 0 50 50" fill="none" xmlns="http://www.w3.org/2000/svg">
<path id="Vector" d="M25 23.0216C21.9444 23.0216 19.0972 22.4345 16.4583 21.2604C13.8194 20.0863 11.4815 18.4671 9.44444 16.4029L14.4444 13.3094C15.5556 14.2686 16.7593 15.06 18.0556 15.6835C19.3519 16.307 20.7407 16.7386 22.2222 16.9784V1.72662L25 0L27.7778 1.72662V16.9784C29.2593 16.7386 30.6481 16.307 31.9444 15.6835C33.2407 15.06 34.4444 14.2686 35.5556 13.3094L40.5556 16.4029C38.5185 18.4652 36.1806 20.0844 33.5417 21.2604C30.9028 22.4365 28.0556 23.0235 25 23.0216ZM21.5972 50L16.4583 47.1942C16.5509 46.7626 16.6093 46.3309 16.6333 45.8993C16.6574 45.4676 16.6685 45.036 16.6667 44.6043C16.6667 43.5012 16.5741 42.4106 16.3889 41.3324C16.2037 40.2542 15.9259 39.2345 15.5556 38.2734L2.84722 46.187L0 44.6043V41.223L12.6389 33.3813C11.713 32.2782 10.6481 31.295 9.44444 30.4317C8.24074 29.5683 6.94444 28.8729 5.55556 28.3453V22.3022C10.3704 23.5971 14.3519 26.2954 17.5 30.3971C20.6481 34.4988 22.2222 39.2345 22.2222 44.6043C22.2222 45.5635 22.1759 46.4873 22.0833 47.3755C21.9907 48.2638 21.8287 49.1386 21.5972 50ZM28.4028 50C28.1713 49.1367 28.0093 48.2609 27.9167 47.3727C27.8241 46.4844 27.7778 45.5616 27.7778 44.6043C27.7778 39.2326 29.3519 34.4969 32.5 30.3971C35.6481 26.2974 39.6296 23.599 44.4444 22.3022V28.3453C43.0556 28.8729 41.7593 29.5683 40.5556 30.4317C39.3518 31.295 38.287 32.2782 37.3611 33.3813L50 41.223V44.6043L47.1528 46.187L34.4444 38.2734C34.0741 39.2326 33.7963 40.2523 33.6111 41.3324C33.4259 42.4125 33.3333 43.5031 33.3333 44.6043C33.3333 45.036 33.3454 45.4676 33.3694 45.8993C33.3935 46.3309 33.4509 46.7626 33.5417 47.1942L28.4028 50Z" fill="white"/>
</svg>
